<svg width="54" height="54" viewBox="0 0 54 54" fill="none" xmlns="http://www.w3.org/2000/svg">
<circle cx="27" cy="27" r="27" transform="matrix(-1 0 0 1 54 0)" fill="white"/>
<path fill-rule="evenodd" clip-rule="evenodd" d="M24.7071 20.2954C25.0976 20.6893 25.0976 21.3278 24.7071 21.7217L20.4142 26.0512H36C36.5523 26.0512 37 26.5028 37 27.0598C37 27.6168 36.5523 28.0683 36 28.0683H20.4142L24.7071 32.3979C25.0976 32.7917 25.0976 33.4303 24.7071 33.8241C24.3166 34.218 23.6834 34.218 23.2929 33.8241L17.2929 27.7729C16.9024 27.3791 16.9024 26.7405 17.2929 26.3466L23.2929 20.2954C23.6834 19.9015 24.3166 19.9015 24.7071 20.2954Z" fill="#00373E"/>
</svg>
